<svg xmlns="http://www.w3.org/2000/svg" viewBox="0 0 426.65 393.08">
  <defs>
    <style>
      .cls-1 {
        fill: none;
      }
    </style>
  </defs>
  <title>12CA</title>
  <g id="RCA">
    <path class="cls-1" d="M340,393.91a28.41,28.41,0,0,1,2.57-1.32,51,51,0,0,1,7.32-2.51c1.34-.37,2.68-.71,4-1.06a31.43,31.43,0,0,1,3.83-.88c.37,0,.87-.13,1.24-.15a43.81,43.81,0,0,1-4.08-3.53,34,34,0,0,1-2.06-2.89c-.44-.66-5-4.5-7.48-4.61a15.51,15.51,0,0,0-4.65.21c-1.66.69-3.28,1.58-5,2.11-2.07.63-9.92,3.4-11.53,4.21-3.75,1.9-7.82,2.16-11.91,2.11-7.15-.1-14.3-.37-21.45-.43A47.92,47.92,0,0,1,280.1,384c-19.44-4.59-33.63-15.81-42.38-33.77a80.18,80.18,0,0,1-7.55-27.55c-.74-7.59-1.54-15.18-2.32-22.77L225.52,277c-.22-2.2,1.29-33.09,1.15-37-.29-8.24.61-16.45.64-24.68,0-9.27.47-18.52.68-27.79a41.51,41.51,0,0,1,3.44-16c3.69-8.35,9.68-13.9,18.94-15.53,4.8-.84,9.63-.75,14.45-.91a65.51,65.51,0,0,0,8-.55c.72-.11.94-.38.86-1.09a33.51,33.51,0,0,1-.21-3.35c0-.62-.31-.6-.75-.56l-22.8,2c-.25,0-.52.16-.75-.06a.87.87,0,0,1,.11-.25,192.25,192.25,0,0,1,16.38-15.11c2-1.56,3.92-3.19,6.38-3.94a8.11,8.11,0,0,0,5.19-4.63c1.42-3.09,1.32-6.29.85-9.62-.57-4-2.86-5.89-6.52-6.69a5.91,5.91,0,0,0-3.5.16,59.9,59.9,0,0,0-9.58,4.59c-2.71,1.61-5.43,3.21-8.13,4.85-3,3.46-9.46,9.17-9.6,9.34q-4.21,5.07-8.4,10.17c-14,17.1-21,37.09-23.94,58.7A208.42,208.42,0,0,0,207,222.93c-.14,7.19-.09,14.39,0,21.59.23,12,.56,24,1.29,35.92.5,8.13,1,16.26,1.77,24.37,1.12,12,2.56,24,4.72,35.85.82,4.52,4.29,13.84,9.63,22.37,6.53,10.43,15.07,19.89,15.44,20.56a158.93,158.93,0,0,0,14.74,8.68A93,93,0,0,0,298,402a97.52,97.52,0,0,0,34.66-7,18.23,18.23,0,0,1,7.28-1.18Z" transform="translate(-206.96 -101.2)"/>
    <g id="PLV">
      <path class="cls-1" d="M357.55,386.9c6.51.15,13,.35,19.53.87a30.77,30.77,0,0,1,7.21,1c5,1.63,8.67,5,12,8.85,2.75,3.19,4.81,6.87,7.26,10.27.51.7.79.83,1.36.12a24.9,24.9,0,0,1,2.56-2.85c.93-.85.83-1.56.25-2.55A56,56,0,0,0,400,392.7c-.93-1-1.9-2-3-3.07,3.4.15,6.58.48,9.76.39,4.41-.12,8.07,1.55,11.51,4A45.62,45.62,0,0,1,428.66,405a1.46,1.46,0,0,0,1.46.73c2.11-.14,4.23-.22,6.34-.32,1.6-.07,1.61-.08.74-1.48a42.6,42.6,0,0,0-7.93-8.77c-1-.89-2-1.75-3-2.62,3.3.19,6.55-.09,9.7.72,3.59.92,7.16,1.91,10.69,3.07,6.38,2.09,12.48,4.69,17.26,9.65.16.17.36.31.63.53,1.16-2.33,2.24-4.64,3.46-6.87a1.31,1.31,0,0,0-.42-2,29.38,29.38,0,0,0-7.23-3.91c-11.52-4.64-23.54-7.53-35.65-10-10.06-2.09-20.3-3.05-30.51-4.07-11.72-1.17-23.41-2.65-35.2-3-3.05-.09-9,.66-12,.79a15.81,15.81,0,0,1,2.49,1.4,21.44,21.44,0,0,1,3.37,2.77c.4.6.89,1.41,1.56,2.25A21.38,21.38,0,0,0,357.55,386.9Z" transform="translate(-206.96 -101.2)"/>
    </g>
    <g id="PDA">
      <path class="cls-1" d="M354.49,388.83l-3.87,1a45.84,45.84,0,0,0-10.38,3.94,28.87,28.87,0,0,1,18.12,7.38,193,193,0,0,1,16.58,16.47c8.54,9.45,16.36,19.43,22.41,30.7a3.27,3.27,0,0,0,.49.68c5.53,5.93,10.85,12.07,16.79,17.61a118.55,118.55,0,0,0,23,16.57c.38.21.68.51,1-.11q2.45-4.25,5-8.45c.26-.44.21-.61-.27-.74-3.92-1.12-7.18-3.43-10.38-5.81a154.65,154.65,0,0,1-18.53-16.84c-2.39-2.47-5-4.79-6.94-7.6-3.61-5.22-7.08-10.53-10.64-15.79a169.72,169.72,0,0,0-22.59-27.43c-3.63-3.5-11.37-9.3-15.31-12.41,0,0-.66,0-1.47.18C356.51,388.35,355.27,388.63,354.49,388.83Z" transform="translate(-206.96 -101.2)"/>
    </g>
    <g id="AVN">
      <path class="cls-1" d="M340.7,377.17c-1.37-.45-1.47-2.21-2.62-3.31-2.71-2.59-3.94-5.94-4.79-9.47-1-4.22-1.06-8.55-1.34-12.85q-.55-8.6-1-17.21c0-.69-.19-1-.93-1-1.55-.14-3.09-.38-4.63-.63-.68-.11-.9,0-.82.76.24,2.34.4,4.7.58,7,.59,7.44,1.14,14.89,1.78,22.33a16.2,16.2,0,0,0,.57,4.61,22.42,22.42,0,0,1,1.42,6.64c.17,2.56-.43,6.25-1.74,8.18,1.11-.41,5.72-1.91,9.23-3.22A33.37,33.37,0,0,0,340.7,377.17Z" transform="translate(-206.96 -101.2)"/>
    </g>
    <g id="AM">
      <path class="cls-1" d="M251.75,390.86c-3.29-2.43-7.46-4.51-11.81-7.27.61,1.92.61,4.87,1.29,6.77,1.64,4.57,3.26,9.19,5.92,13.29a141.27,141.27,0,0,1,11.34,21.16,58.43,58.43,0,0,0,4,8.15,138.31,138.31,0,0,0,15.3,19.34c9.64,10.58,20.08,20.4,29.53,31.14.54.62.76.38,1.15-.08,1.33-1.59,2.66-3.19,4.06-4.72.51-.56.4-.86,0-1.37-4.82-5.61-9.51-11.33-14.44-16.83-7-7.81-13.81-15.74-20-24.17a217.78,217.78,0,0,1-23.51-39A22.42,22.42,0,0,0,251.75,390.86Z" transform="translate(-206.96 -101.2)"/>
    </g>
    <g id="RV">
      <path class="cls-1" d="M225.84,265.31c1.27,1.38,2.4,2.61,3.53,3.82,8.82,9.43,17.36,19.11,26.36,28.36,4.76,4.89,9.26,10,11.88,16.62,1.76-1.38,3.45-2.77,5.21-4.07.6-.45.6-.73.2-1.31q-8.23-12-17.34-23.24c-4.93-6.13-10.95-11.17-16.31-16.87-3.53-3.75-6.76-7.64-8.69-12.49-1.29-3.26-3.54-7.15-4.1-10.53C226.24,254.44,226.21,255.28,225.84,265.31Z" transform="translate(-206.96 -101.2)"/>
    </g>
    <g id="Conus">
      <path class="cls-1" d="M250.36,120.81a43.1,43.1,0,0,0-5.5-3.83c-7.19-3.79-14.83-6.41-22.55-8.85-2.06-.65-2.06-.64-2.39,1.53-.06.39-.11.79-.15,1.19-.25,2.43-.24,2.4,2.07,3,5.41,1.43,10.73,3.11,15.44,6.25,2.71,1.81,4.89,4,5.19,7.48a2.06,2.06,0,0,1-.1.92l.2,0C248,123.29,249.49,122.26,250.36,120.81Z" transform="translate(-206.96 -101.2)"/>
    </g>
  </g>
  <g id="LAD">
    <path class="cls-1" d="M598,359.39a164.59,164.59,0,0,0-2.1-23.73A190,190,0,0,0,583.32,292c-.89-2.1-10.43-23.66-10.44-23.36,0,.06-11.08-25.75-18.16-37.34a311,311,0,0,0-32.79-44.66c-2.09-2.35-36.65-34.37-45.6-40.3s-17.58-12.2-26.78-17.68C436,120.57,422,113.46,407,108.39c-.4,1.19-6.2,18.57-7.85,22.89l1.15.2a83.36,83.36,0,0,1,14.74,3.86c5.72,2.11,12,4.83,16.88,7,4.41,2,7.65,3.49,8.24,3.7a40.12,40.12,0,0,1,7.82,4.33l3.83,2.4c8.77,5.5,17.49,11.08,25.55,17.62.36.29,9,6.65,9.07,6.75a238.58,238.58,0,0,1,31,33.49c6.7,8.78,12.28,18.28,18,27.69,7.4,12.16,31.48,57.4,33.63,61.72a171.53,171.53,0,0,1,15.13,44.71c.85,4.5,1.73,9,1.57,13.65a181.21,181.21,0,0,1-5.62,38.19,152.57,152.57,0,0,1-17.73,42.93C551.48,457.25,537.53,472,519.73,483a88.55,88.55,0,0,1-8.88,4.73c1.3,2.1,2.57,4.13,3.8,6.18.29.48.49.46.9.16a39,39,0,0,1,4.45-3,128.08,128.08,0,0,0,12-7.44,191.76,191.76,0,0,0,39.5-37.17c5.55-6.83,10.81-13.79,13.67-22.32,2-6,3.79-12,5.8-18A138.54,138.54,0,0,0,598,359.39Z" transform="translate(-206.96 -101.2)"/>
    <g id="S2">
      <path class="cls-1" d="M517.79,211a2.34,2.34,0,0,1,0,.4,155.5,155.5,0,0,1-7.55,24.77q-4.62,12.24-10.22,24.07c-.45.95-.15,1.3.89,1.75a8.07,8.07,0,0,1,2,1.19c1.06.9,1.54.79,2.18-.18a84.75,84.75,0,0,0,7.51-15.17,292.21,292.21,0,0,0,10-28.61c.14-.49.28-.94.45-1.47A66.27,66.27,0,0,0,517.79,211Z" transform="translate(-206.96 -101.2)"/>
    </g>
    <g id="S1">
      <path class="cls-1" d="M478.25,171.18a2.34,2.34,0,0,1,.07.39,155.5,155.5,0,0,1-.16,25.89q-.93,13.05-2.92,26c-.14.9.14,1.21.94,1.36a22.13,22.13,0,0,1,3.09.78c1,.33,1.34,0,1.64-.95a87,87,0,0,0,2.93-17.26c.94-10,1.3-20.07,1.33-30.13,0-.35,0-.7,0-1.08A66.27,66.27,0,0,0,478.25,171.18Z" transform="translate(-206.96 -101.2)"/>
    </g>
    <g id="D2">
      <path class="cls-1" d="M579,282.05c18.72,7.85,36.54,16.63,51.71,30.08.91-1.81,1.76-3.61,2.71-5.36a1.05,1.05,0,0,0-.28-1.57q-5.57-4.83-11.39-9.37a247.88,247.88,0,0,0-48.9-29.93,2.37,2.37,0,0,1-.73-.49C572.59,267.18,579,282.15,579,282.05Z" transform="translate(-206.96 -101.2)"/>
    </g>
    <g id="D1">
      <path class="cls-1" d="M496.73,163.35,537,174.08l13.76,4.07L562,181.26s48.35,16.61,58.33,24.59c-2.38,9.65-3.48,10-3.48,10l-15.72-8S556.84,186.91,520.58,183c-3.85-.6-2.71-.34-2.71-.34l-10.65-9.86Z" transform="translate(-206.96 -101.2)"/>
    </g>
    <path class="cls-1" d="M415.07,135.34" transform="translate(-206.96 -101.2)"/>
  </g>
  <g id="LCX">
    <path class="cls-1" d="M411.68,326.37a.17.17,0,0,0,0-.24c-2.21-1.94-3.93-4.47-5.87-6.68-1.21-1.38-3.58-4.17-4.8-5.54-3.54-4-5.61-5.58-7.55-10.63a62.16,62.16,0,0,1-3.11-13.75,77.26,77.26,0,0,1,.1-17.73c.42-3.88,1.46-7.69,1.34-11.64-.07-2.38,3.53-17.21,3.54-17.26.24-2,.37-3.66.61-5.48a175.47,175.47,0,0,1,8.17-33.79c.58-1.71,10.46-34.12,12.68-43,.89-3.55,1.52-7.17,3.1-10.53a14.26,14.26,0,0,1,11.53-8c-.52-.61-2.72-1.21-5.53-2.42a157.81,157.81,0,0,0-19.81-7.11,27,27,0,0,0-5.07-.92c.93.91,2.71.8,3.42,2.06,1,1.82.76,5.17.4,7.47-.45,2.87-1.1,5.7-1.64,8.55-.73,3.85-2.33,7.45-3.23,11.25-1.91,8-3.84,16-6.45,23.89-1.14,3.43-3.25,6.4-4.38,9.81-.17.51-.44.38-.83.27a12.67,12.67,0,0,0-3.43-.48c-7.1-.15-14.1.89-21.1,1.86-.84.12-.56.63-.48,1,.28,1.61.66,3.21.9,4.82.13.84.4.9,1.17.67a50.08,50.08,0,0,1,10.54-2.11,25.45,25.45,0,0,1,10.65,1c.86.3,1.16.64.93,1.62q-4,17.34-7.87,34.7a44.49,44.49,0,0,0-1.06,7.79,178.93,178.93,0,0,1-2.14,21.28A75.35,75.35,0,0,1,372.93,282c-4.2,11-10.87,20.74-17.39,30.51a111,111,0,0,1-7.24,9.5c-.71.85-.55,1.09.38,1.71a34.6,34.6,0,0,1,3.77,3c.76.67,1.09.55,1.66-.3,4.85-7.23,9.8-14.4,15.11-21.31a65.33,65.33,0,0,1,8-9.23c1.32-1.18,1.49-1.12,2.33.39,4.27,7.65,7.43,14.71,12.45,20.72,4.23,5.07,10.13,9.09,15.34,14.15a.36.36,0,0,0,.52,0C409.33,329.2,410.2,328.1,411.68,326.37Z" transform="translate(-206.96 -101.2)"/>
    <g id="Left_PDA" data-name="Left PDA">
      <path class="cls-1" d="M397.31,322.36c3.24,6.19,9.11,32.76,21.69,38.17,14.67,5.5,15.15,14.79,15.15,14.79l3.69-3.55a45.15,45.15,0,0,0-3.07-7.32c-1.4-2.92-7.68-5-13.19-8.17a27.71,27.71,0,0,1-8.33-6.92,39.7,39.7,0,0,1-2.17-3.5c-1.67-2.72-3.15-4.14-3.35-7-.28-4-.4-7.55-.39-7.77C403.65,327.92,400.68,325.24,397.31,322.36Z" transform="translate(-206.96 -101.2)"/>
    </g>
    <g id="Left_PLV" data-name="Left PLV">
      <path class="cls-1" d="M524.15,354l3.28-8.87c-16.38-11.23-23.07-9.41-23.07-9.41l-33.69,1.07s-5.87.69-12.83.83c-7.5.16-16.51-1.31-21.61-1.9-4.76.48-24.51-9.51-24.51-9.51l-4,5,8.64,4,.26.05c1.58.19,20.2,8,20.2,8s5.73-1.11,18.23,2C466.33,351,470.9,357,470.9,357l4-2c-.61-4.66-5.12-5.54-10.65-9.53,11.47-4.43,26,.22,26,.22,7,3.77,12.9,12.41,12.9,12.41l4-1.77c-1.09-5.32-8.74-10.64-8.74-10.64C508.31,342.76,524.15,354,524.15,354Z" transform="translate(-206.96 -101.2)"/>
    </g>
    <g id="OM2">
      <path class="cls-1" d="M421.1,274.47a195.13,195.13,0,0,1,23.1,25c1.51-2,3-4,4.46-5.87.39-.5.21-.86,0-1.29a54.65,54.65,0,0,0-4.26-6.51c-7.17-9.45-15.78-17.5-24.66-25.27-6.65-5.82-17.06-14.7-24.15-20-.69,4.18-2.14,10.59-2.11,10.63,1.21,1.13,1,.88,1.76,1.6A301.68,301.68,0,0,1,421.1,274.47Z" transform="translate(-206.96 -101.2)"/>
    </g>
    <g id="OM1">
      <path class="cls-1" d="M459.53,260.92c-15.38-21.07-35-38.17-57.28-51.66l-2.83,10,0-.09s40.95,30.39,58,49.52c.79-1.28,1.53-2.46,2.26-3.66C461,262.94,461,262.94,459.53,260.92Z" transform="translate(-206.96 -101.2)"/>
    </g>
    <g id="EOM">
      <path class="cls-1" d="M418,155.73c-1.12,2.94-1.49,6.78-2.16,9.08-1.08,3.34-.64,1.77-.63,1.75,15,14.26,24.08,30.73,33.49,47.28,1-.61,4.44-2,4.42-2.48,0-.16-8.63-15.66-17.75-30.08C427,168.09,418.11,155.87,418,155.73Z" transform="translate(-206.96 -101.2)"/>
    </g>
  </g>
  <g id="RAMUS">
    <path class="cls-1" d="M431.95,142.34c2.61,2,11.34,9.77,13.9,15.86,3.3,7.83,7.05,18.24,8.31,27.55,2.4,17.82,4.5,28.66,4.5,28.66l3.16,12.27s2.52,6.93,4.3,10.47a116.91,116.91,0,0,1,8.06,21.09c4.36,15.92,5.06,34.31,18.24,56.71l4.1-1.79s-14.3-31.46-14.74-52.18a191.92,191.92,0,0,0-5.08-19.56c-1.86-5.53-7.66-19-8.33-21.88-3.3-14.21-6.83-34.44-6.56-39.56-2.45-8.11-7.7-25.15-10-27.21l-3.83-2.4-4.68-2.89-1.74-.87-1.4-.56S431.91,142.31,431.95,142.34Z" transform="translate(-206.96 -101.2)"/>
  </g>
  <g id="LM">
    <path class="cls-1" d="M407,108.39s-9.33-3.19-14.13-3.72c-6.38-.72-12.82-1-19.23-1.49-8.36-.62-16.73-1.21-25.09-1.86-3.35-.26-3.36-.32-5,2.63-4.08,7.41-3.07,15,2.73,20.6a3.32,3.32,0,0,0,2.3,1c3.79.17,7.58.41,11.36.63,4.07.24,8.16.23,12.19.78,9,1.22,18.06,2.68,27,4.28C399.18,131.28,406.54,109.85,407,108.39Z" transform="translate(-206.96 -101.2)"/>
  </g>
</svg>
